<svg width="100" height="100" viewBox="0 0 100 100" fill="none" xmlns="http://www.w3.org/2000/svg">
<path fill-rule="evenodd" clip-rule="evenodd" d="M71.09 26.56C70.3169 26.5619 69.545 26.6187 68.78 26.73C66.622 23.7732 63.7962 21.3677 60.5328 19.7094C57.2694 18.0511 53.6606 17.1867 50 17.1867C46.3394 17.1867 42.7306 18.0511 39.4672 19.7094C36.2038 21.3677 33.378 23.7732 31.22 26.73C30.4551 26.618 29.6831 26.5612 28.91 26.56C24.5578 26.56 20.3838 28.2889 17.3064 31.3664C14.2289 34.4439 12.5 38.6178 12.5 42.97C12.5 47.3222 14.2289 51.4962 17.3064 54.5736C20.3838 57.6511 24.5578 59.38 28.91 59.38C30.8965 59.3797 32.8661 59.0136 34.72 58.3C38.9447 62.0119 44.3762 64.0591 50 64.0591C55.6238 64.0591 61.0553 62.0119 65.28 58.3C67.1339 59.0136 69.1035 59.3797 71.09 59.38C75.4422 59.38 79.6161 57.6511 82.6936 54.5736C85.7711 51.4962 87.5 47.3222 87.5 42.97C87.5 38.6178 85.7711 34.4439 82.6936 31.3664C79.6161 28.2889 75.4422 26.56 71.09 26.56ZM71.09 54.69C68.6815 54.6858 66.3336 53.9346 64.37 52.54C62.6355 54.6774 60.4458 56.4008 57.9607 57.5845C55.4756 58.7683 52.7576 59.3825 50.005 59.3825C47.2524 59.3825 44.5344 58.7683 42.0493 57.5845C39.5642 56.4008 37.3745 54.6774 35.64 52.54C33.9762 53.7109 32.036 54.4281 30.0107 54.6209C27.9854 54.8137 25.9447 54.4756 24.0899 53.6397C22.235 52.8038 20.6299 51.4991 19.4327 49.8542C18.2356 48.2092 17.4876 46.2807 17.2626 44.2586C17.0376 42.2366 17.3433 40.1909 18.1496 38.3229C18.9559 36.455 20.2349 34.8294 21.8606 33.6062C23.4864 32.3831 25.4028 31.6046 27.421 31.3475C29.4392 31.0904 31.4895 31.3635 33.37 32.14C34.9161 29.0538 37.2904 26.4586 40.2274 24.645C43.1644 22.8314 46.5482 21.8709 50 21.8709C53.4518 21.8709 56.8356 22.8314 59.7726 24.645C62.7096 26.4586 65.0839 29.0538 66.63 32.14C68.2319 31.4774 69.9609 31.1783 71.6923 31.2645C73.4237 31.3507 75.1145 31.8198 76.6427 32.6382C78.171 33.4566 79.4986 34.6039 80.53 35.9972C81.5614 37.3906 82.2708 38.9954 82.6071 40.6961C82.9435 42.3967 82.8984 44.1507 82.4751 45.8318C82.0518 47.5129 81.2608 49.0792 80.1592 50.4177C79.0576 51.7562 77.6727 52.8337 76.1045 53.5725C74.5362 54.3113 72.8236 54.6929 71.09 54.69V54.69Z" fill="white"/>
<path fill-rule="evenodd" clip-rule="evenodd" d="M45.31 78.13C45.31 79.3739 45.8041 80.5668 46.6837 81.4463C47.5632 82.3259 48.7561 82.82 50 82.82C51.2439 82.82 52.4368 82.3259 53.3163 81.4463C54.1959 80.5668 54.69 79.3739 54.69 78.13C54.69 75.53 50 68.75 50 68.75C50 68.75 45.31 75.53 45.31 78.13Z" fill="white"/>
</svg>
