<svg width="100" height="100" viewBox="0 0 100 100" fill="none" xmlns="http://www.w3.org/2000/svg">
<path fill-rule="evenodd" clip-rule="evenodd" d="M71.09 23.63C70.3169 23.6319 69.545 23.6887 68.78 23.8C66.622 20.8432 63.7962 18.4377 60.5328 16.7794C57.2694 15.1211 53.6606 14.2567 50 14.2567C46.3394 14.2567 42.7306 15.1211 39.4672 16.7794C36.2038 18.4377 33.378 20.8432 31.22 23.8C30.455 23.6883 29.6831 23.6315 28.91 23.63C24.5578 23.63 20.3838 25.3589 17.3064 28.4364C14.2289 31.5138 12.5 35.6878 12.5 40.04C12.5 44.3922 14.2289 48.5661 17.3064 51.6436C20.3838 54.7211 24.5578 56.45 28.91 56.45C30.8966 56.4506 32.8663 56.0845 34.72 55.37C38.9447 59.0819 44.3762 61.1291 50 61.1291C55.6238 61.1291 61.0553 59.0819 65.28 55.37C67.1337 56.0845 69.1034 56.4506 71.09 56.45C75.4422 56.45 79.6161 54.7211 82.6936 51.6436C85.7711 48.5661 87.5 44.3922 87.5 40.04C87.5 35.6878 85.7711 31.5138 82.6936 28.4364C79.6161 25.3589 75.4422 23.63 71.09 23.63V23.63ZM71.09 51.76C68.6787 51.754 66.3282 51.003 64.36 49.61C62.6264 51.7472 60.4377 53.4705 57.9534 54.6543C55.4691 55.838 52.7519 56.4522 50 56.4522C47.2481 56.4522 44.5309 55.838 42.0466 54.6543C39.5623 53.4705 37.3736 51.7472 35.64 49.61C33.9762 50.7809 32.036 51.4981 30.0107 51.6909C27.9854 51.8837 25.9447 51.5455 24.0899 50.7097C22.235 49.8738 20.6299 48.5691 19.4327 46.9241C18.2356 45.2792 17.4876 43.3507 17.2626 41.3286C17.0376 39.3066 17.3433 37.2609 18.1496 35.3929C18.9559 33.525 20.2349 31.8994 21.8606 30.6762C23.4864 29.4531 25.4028 28.6746 27.421 28.4175C29.4392 28.1604 31.4895 28.4335 33.37 29.21C34.9187 26.1268 37.294 23.5348 40.2307 21.7236C43.1673 19.9123 46.5497 18.9532 50 18.9532C53.4503 18.9532 56.8327 19.9123 59.7693 21.7236C62.706 23.5348 65.0813 26.1268 66.63 29.21C68.2319 28.5474 69.9609 28.2483 71.6923 28.3345C73.4237 28.4207 75.1145 28.8898 76.6427 29.7082C78.171 30.5266 79.4986 31.6738 80.53 33.0672C81.5614 34.4606 82.2708 36.0654 82.6071 37.766C82.9435 39.4667 82.8984 41.2207 82.4751 42.9018C82.0518 44.5829 81.2608 46.1492 80.1592 47.4877C79.0576 48.8262 77.6727 49.9037 76.1045 50.6425C74.5362 51.3813 72.8236 51.7629 71.09 51.76V51.76Z" fill="white"/>
<path fill-rule="evenodd" clip-rule="evenodd" d="M45.3101 81.05C45.3101 82.2939 45.8042 83.4868 46.6837 84.3663C47.5633 85.2459 48.7562 85.74 50.0001 85.74C51.2439 85.74 52.4368 85.2459 53.3164 84.3663C54.1959 83.4868 54.6901 82.2939 54.6901 81.05C54.6901 78.46 50.0001 71.68 50.0001 71.68C50.0001 71.68 45.3101 78.46 45.3101 81.05Z" fill="white"/>
<path fill-rule="evenodd" clip-rule="evenodd" d="M16.92 68.16C16.92 69.4039 17.4142 70.5968 18.2937 71.4763C19.1733 72.3559 20.3662 72.85 21.61 72.85C22.8539 72.85 24.0468 72.3559 24.9264 71.4763C25.8059 70.5968 26.3 69.4039 26.3 68.16C26.3 65.57 21.61 58.79 21.61 58.79C21.61 58.79 16.92 65.57 16.92 68.16Z" fill="white"/>
<path fill-rule="evenodd" clip-rule="evenodd" d="M73.6999 68.16C73.6707 68.7935 73.7702 69.4263 73.9924 70.0202C74.2146 70.6141 74.555 71.1568 74.9929 71.6154C75.4309 72.074 75.9572 72.4391 76.5403 72.6885C77.1233 72.9379 77.7508 73.0665 78.385 73.0665C79.0191 73.0665 79.6466 72.9379 80.2296 72.6885C80.8127 72.4391 81.339 72.074 81.777 71.6154C82.2149 71.1568 82.5553 70.6141 82.7775 70.0202C82.9997 69.4263 83.0992 68.7935 83.0699 68.16C83.0699 65.57 78.3899 58.79 78.3899 58.79C78.3899 58.79 73.6999 65.57 73.6999 68.16Z" fill="white"/>
<path fill-rule="evenodd" clip-rule="evenodd" d="M54.77 70.51C54.77 71.7539 55.2641 72.9468 56.1437 73.8263C57.0232 74.7059 58.2162 75.2 59.46 75.2C60.7039 75.2 61.8968 74.7059 62.7763 73.8263C63.6559 72.9468 64.15 71.7539 64.15 70.51C64.15 67.92 59.46 61.13 59.46 61.13C59.46 61.13 54.77 67.92 54.77 70.51Z" fill="white"/>
<path fill-rule="evenodd" clip-rule="evenodd" d="M35.85 70.51C35.8207 71.1435 35.9202 71.7763 36.1424 72.3702C36.3647 72.9641 36.705 73.5068 37.143 73.9654C37.5809 74.424 38.1073 74.7891 38.6903 75.0385C39.2733 75.2879 39.9008 75.4165 40.535 75.4165C41.1691 75.4165 41.7966 75.2879 42.3797 75.0385C42.9627 74.7891 43.4891 74.424 43.927 73.9654C44.3649 73.5068 44.7053 72.9641 44.9275 72.3702C45.1498 71.7763 45.2492 71.1435 45.22 70.51C45.22 67.92 40.54 61.13 40.54 61.13C40.54 61.13 35.85 67.92 35.85 70.51Z" fill="white"/>
<path fill-rule="evenodd" clip-rule="evenodd" d="M64.24 79.88C64.2107 80.5135 64.3102 81.1463 64.5324 81.7402C64.7547 82.3341 65.0951 82.8768 65.533 83.3354C65.9709 83.794 66.4973 84.1591 67.0803 84.4085C67.6633 84.6579 68.2909 84.7865 68.925 84.7865C69.5591 84.7865 70.1867 84.6579 70.7697 84.4085C71.3527 84.1591 71.8791 83.794 72.317 83.3354C72.7549 82.8768 73.0953 82.3341 73.3175 81.7402C73.5398 81.1463 73.6393 80.5135 73.61 79.88C73.61 77.29 68.92 70.51 68.92 70.51C68.92 70.51 64.24 77.29 64.24 79.88Z" fill="white"/>
<path fill-rule="evenodd" clip-rule="evenodd" d="M26.39 79.88C26.3607 80.5135 26.4602 81.1463 26.6825 81.7402C26.9047 82.3341 27.2451 82.8768 27.683 83.3354C28.1209 83.794 28.6473 84.1591 29.2303 84.4085C29.8133 84.6579 30.4409 84.7865 31.075 84.7865C31.7091 84.7865 32.3367 84.6579 32.9197 84.4085C33.5027 84.1591 34.0291 83.794 34.467 83.3354C34.9049 82.8768 35.2453 82.3341 35.4676 81.7402C35.6898 81.1463 35.7893 80.5135 35.76 79.88C35.76 77.29 31.07 70.51 31.07 70.51C31.07 70.51 26.39 77.29 26.39 79.88Z" fill="white"/>
</svg>
