<svg width="100" height="100" viewBox="0 0 100 100" fill="none" xmlns="http://www.w3.org/2000/svg">
<path fill-rule="evenodd" clip-rule="evenodd" d="M71.09 24.53C70.3169 24.5319 69.545 24.5887 68.78 24.7C66.6219 21.7432 63.7962 19.3377 60.5328 17.6794C57.2694 16.0211 53.6606 15.1567 50 15.1567C46.3394 15.1567 42.7305 16.0211 39.4671 17.6794C36.2037 19.3377 33.378 21.7432 31.22 24.7C30.455 24.5883 29.683 24.5315 28.91 24.53C26.7216 24.476 24.5444 24.8603 22.5068 25.6605C20.4692 26.4606 18.6123 27.6604 17.0454 29.189C15.4785 30.7177 14.2333 32.5445 13.3831 34.5617C12.5329 36.579 12.0949 38.7459 12.0949 40.935C12.0949 43.1241 12.5329 45.291 13.3831 47.3083C14.2333 49.3255 15.4785 51.1523 17.0454 52.681C18.6123 54.2097 20.4692 55.4094 22.5068 56.2095C24.5444 57.0097 26.7216 57.394 28.91 57.34C30.8959 57.3431 32.8654 56.9804 34.72 56.27C36.5212 57.8052 38.544 59.0593 40.72 59.99L44.37 56.35C40.9654 55.264 37.9361 53.2399 35.63 50.51C33.9662 51.6809 32.026 52.3981 30.0007 52.5909C27.9753 52.7837 25.9347 52.4456 24.0798 51.6097C22.225 50.7738 20.6199 49.4691 19.4227 47.8242C18.2255 46.1792 17.4776 44.2507 17.2526 42.2286C17.0276 40.2066 17.3333 38.1609 18.1396 36.293C18.9458 34.425 20.2249 32.7994 21.8506 31.5762C23.4764 30.3531 25.3927 29.5746 27.4109 29.3175C29.4291 29.0604 31.4795 29.3335 33.36 30.11C34.9077 27.0242 37.2832 24.4297 40.2209 22.6166C43.1586 20.8034 46.5428 19.8432 49.995 19.8432C53.4472 19.8432 56.8313 20.8034 59.7691 22.6166C62.7068 24.4297 65.0823 27.0242 66.63 30.11C68.5119 29.3282 70.5652 29.0507 72.5872 29.3047C74.6091 29.5588 76.5299 30.3357 78.16 31.5587C79.79 32.7818 81.073 34.4087 81.8823 36.279C82.6916 38.1493 82.9992 40.1983 82.7748 42.2238C82.5504 44.2493 81.8018 46.1812 80.6027 47.829C79.4037 49.4768 77.7957 50.7835 75.9375 51.6201C74.0793 52.4567 72.035 52.7944 70.0065 52.5997C67.9779 52.405 66.0352 51.6848 64.37 50.51C62.826 52.3377 60.9538 53.8605 58.85 55L56.85 60.9C59.9388 59.9562 62.7988 58.3832 65.25 56.28C67.1042 56.9913 69.0739 57.3541 71.06 57.35C73.2484 57.404 75.4255 57.0197 77.4631 56.2195C79.5007 55.4194 81.3576 54.2197 82.9245 52.691C84.4914 51.1623 85.7367 49.3355 86.5869 47.3183C87.437 45.3011 87.875 43.1341 87.875 40.945C87.875 38.7559 87.437 36.589 86.5869 34.5717C85.7367 32.5545 84.4914 30.7277 82.9245 29.199C81.3576 27.6704 79.5007 26.4706 77.4631 25.6705C75.4255 24.8703 73.2484 24.486 71.06 24.54L71.09 24.53Z" fill="white"/>
<path fill-rule="evenodd" clip-rule="evenodd" d="M41.4 66.09L46.09 70.78L41.4 84.84L55.47 70.78L50.78 66.09L55.47 52.03L41.4 66.09Z" fill="white"/>
<path fill-rule="evenodd" clip-rule="evenodd" d="M27.58 70.78C27.58 72.0239 28.0741 73.2168 28.9537 74.0963C29.8332 74.9759 31.0262 75.47 32.27 75.47C33.5139 75.47 34.7068 74.9759 35.5863 74.0963C36.4659 73.2168 36.96 72.0239 36.96 70.78C36.96 68.19 32.27 61.41 32.27 61.41C32.27 61.41 27.58 68.19 27.58 70.78Z" fill="white"/>
<path fill-rule="evenodd" clip-rule="evenodd" d="M64.6 63C63.5197 62.998 62.4631 63.3166 61.5639 63.9153C60.6647 64.5141 59.9633 65.3661 59.5485 66.3636C59.1337 67.3611 59.0242 68.4593 59.2337 69.5191C59.4432 70.5789 59.9625 71.5527 60.7257 72.3173C61.4889 73.0819 62.4617 73.6029 63.5211 73.8144C64.5805 74.0258 65.6789 73.9183 66.6771 73.5053C67.6754 73.0924 68.5287 72.3926 69.1291 71.4945C69.7295 70.5964 70.05 69.5403 70.05 68.46C70.0513 67.7435 69.9113 67.0337 69.638 66.3713C69.3647 65.7089 68.9635 65.1069 68.4573 64.5998C67.9511 64.0927 67.3498 63.6903 66.6879 63.4158C66.0261 63.1413 65.3166 63 64.6 63V63Z" fill="white"/>
</svg>
